<svg xmlns="http://www.w3.org/2000/svg" xmlns:xlink="http://www.w3.org/1999/xlink" preserveAspectRatio="xMidYMid" width="318" height="356" viewBox="0 0 318 356">
  <defs>
    <style>
      .cls-1 {
        stroke: #fff;
        stroke-width: 35px;
        fill: none;
        fill-rule: evenodd;
      }
    </style>
  </defs>
  <g>
    <path d="M29.750,35.750 L118.781,35.750 C124.304,35.750 128.781,40.227 128.781,45.750 L128.781,134.781 C128.781,140.304 124.304,144.781 118.781,144.781 L29.750,144.781 C24.227,144.781 19.750,140.304 19.750,134.781 L19.750,45.750 C19.750,40.227 24.227,35.750 29.750,35.750 Z" class="cls-1"/>
    <path d="M198.219,35.750 L287.250,35.750 C292.773,35.750 297.250,40.227 297.250,45.750 L297.250,134.781 C297.250,140.304 292.773,144.781 287.250,144.781 L198.219,144.781 C192.696,144.781 188.219,140.304 188.219,134.781 L188.219,45.750 C188.219,40.227 192.696,35.750 198.219,35.750 Z" class="cls-1"/>
    <path d="M29.750,204.219 L118.781,204.219 C124.304,204.219 128.781,208.696 128.781,214.219 L128.781,303.250 C128.781,308.773 124.304,313.250 118.781,313.250 L29.750,313.250 C24.227,313.250 19.750,308.773 19.750,303.250 L19.750,214.219 C19.750,208.696 24.227,204.219 29.750,204.219 Z" class="cls-1"/>
    <path d="M198.219,204.219 L287.250,204.219 C292.773,204.219 297.250,208.696 297.250,214.219 L297.250,303.250 C297.250,308.773 292.773,313.250 287.250,313.250 L198.219,313.250 C192.696,313.250 188.219,308.773 188.219,303.250 L188.219,214.219 C188.219,208.696 192.696,204.219 198.219,204.219 Z" class="cls-1"/>
  </g>
</svg>
