<svg xmlns="http://www.w3.org/2000/svg" xmlns:xlink="http://www.w3.org/1999/xlink" preserveAspectRatio="xMidYMid" width="318" height="356" viewBox="0 0 318 356">
  <defs>
    <style>
      .cls-1, .cls-2, .cls-3, .cls-4 {
        stroke: #fff;
        fill: none;
      }

      .cls-1, .cls-2 {
        stroke-linejoin: bevel;
      }

      .cls-1 {
        stroke-width: 30px;
      }

      .cls-1, .cls-2, .cls-3 {
        fill-rule: evenodd;
      }

      .cls-2 {
        stroke-width: 10px;
      }

      .cls-3 {
        stroke-width: 5px;
      }

      .cls-4 {
        stroke-width: 11px;
      }
    </style>
  </defs>
  <g>
    <path d="M40.000,65.000 L275.000,65.000 C286.046,65.000 295.000,73.954 295.000,85.000 L295.000,320.000 C295.000,331.046 286.046,340.000 275.000,340.000 L40.000,340.000 C28.954,340.000 20.000,331.046 20.000,320.000 L20.000,85.000 C20.000,73.954 28.954,65.000 40.000,65.000 Z" class="cls-1"/>
    <path d="M67.437,105.437 L97.562,105.437 C101.428,105.437 104.562,108.571 104.562,112.437 L104.562,142.562 C104.562,146.428 101.428,149.562 97.562,149.562 L67.437,149.562 C63.571,149.562 60.437,146.428 60.437,142.562 L60.437,112.437 C60.437,108.571 63.571,105.437 67.437,105.437 Z" class="cls-2"/>
    <path d="M67.437,174.437 L97.562,174.437 C101.428,174.437 104.562,177.571 104.562,181.437 L104.562,211.562 C104.562,215.428 101.428,218.562 97.562,218.562 L67.437,218.562 C63.571,218.562 60.437,215.428 60.437,211.562 L60.437,181.437 C60.437,177.571 63.571,174.437 67.437,174.437 Z" class="cls-2"/>
    <path d="M67.437,244.437 L97.437,244.437 C101.303,244.437 104.437,247.572 104.437,251.437 L104.437,281.562 C104.437,285.428 101.303,288.562 97.437,288.562 L67.437,288.562 C63.571,288.562 60.437,285.428 60.437,281.562 L60.437,251.437 C60.437,247.572 63.571,244.437 67.437,244.437 Z" class="cls-2"/>
    <path d="M62.670,146.861 L59.330,143.139 L98.330,108.139 L101.670,111.861 L62.670,146.861 Z" class="cls-3"/>
    <path d="M63.719,216.815 L60.281,213.185 L98.281,177.185 L101.719,180.815 L63.719,216.815 Z" class="cls-3"/>
    <path d="M126.000,117.000 L126.000,112.000 L246.000,112.000 L246.000,117.000 L126.000,117.000 Z" class="cls-3"/>
    <path d="M128.000,137.000 L128.000,132.000 L202.000,132.000 L202.000,137.000 L128.000,137.000 Z" class="cls-3"/>
    <rect x="96" y="12" width="124" height="35" rx="10" ry="10" class="cls-4"/>
  </g>
</svg>
